<?xml version="1.0" encoding="utf-8" ?><svg xmlns="http://www.w3.org/2000/svg" xmlns:xlink="http://www.w3.org/1999/xlink" width="1080" height="1080" viewBox="0 0 1080 1080"><path fill="white" d="M0 0L1080 0L1080 1080L0 1080L0 0Z"/><path d="M987.585 192.7C989.673 192.527 989.354 192.217 990.787 193.104C992.308 196.881 991.706 209.599 991.769 214.49C992.691 265.124 989.744 315.755 982.952 365.94C982.337 370.696 978.873 396.491 977.523 400.755C976.963 399.706 973.708 376.065 973.122 372.847C966.781 338.012 956.718 304.174 945.128 270.786C861.6 296.89 815.803 339.647 764.114 408.172C787.308 391.015 807.807 374.408 833.95 361.28C856.718 349.845 909.57 331.199 923.482 364.378C944.682 414.941 921.344 481.091 905.944 530.318C897.535 557.197 882.595 585.701 868.907 610.12C824.505 690.373 760.24 757.881 682.268 806.176C663.776 817.42 644.797 827.844 625.387 837.415C580.13 857.764 552.017 867.66 503.15 877.554C486.79 768.36 501.673 677.83 534.048 573.611L531.752 571.984C472.112 530.172 416.425 538.535 348.947 550.309C354.842 542.228 359.892 535.78 366.652 528.339C418.672 471.859 488.756 435.283 564.838 424.907C584.187 422.11 600.845 421.869 619.962 420.948C626.164 410.097 635.144 398.978 642.878 389.177C711.386 302.357 805.949 235.504 913.213 206.464C937.625 200.022 962.485 195.421 987.585 192.7Z"/><path d="M89.7018 191.466C120.871 192.309 151.07 191.765 182.185 191.747L335.804 191.739L820.976 191.48C813.678 196.351 804.261 199.586 796.303 203.443C784.537 209.145 772.641 215.02 761.114 221.189C704.42 251.438 653.923 292.083 612.258 341.003L599.813 356.472C568.67 357.412 537.511 357.654 506.358 357.198C486.002 357.068 465.229 356.674 444.918 357.336C444.19 376.021 444.631 395.6 444.856 414.324C429.438 422.954 414.938 428.936 399.471 438.13C354.023 465.762 315.457 503.371 286.692 548.11C288.23 509.506 287.166 467.867 287.032 429.04C286.956 406.875 287.41 377.695 286.245 355.879C264.961 355.182 240.357 355.779 218.869 355.779L89.666 355.761C90.2778 300.997 90.2898 246.229 89.7018 191.466Z"/><path d="M441.236 585.056C442.998 585.099 444.028 585.123 445.128 586.173C443.915 620.683 444.748 658.153 444.766 692.906L444.792 886.996C433.788 886.91 423.088 887.468 412.119 887.658L369.668 887.98C344.171 888.11 318.601 887.399 293.071 887.588C291.159 887.657 290.192 887.873 288.474 887.032C286.59 884.418 286.889 853.784 286.87 849.051L286.777 795.356L287.273 630.01C336.79 601.877 384.435 588.157 441.236 585.056Z"/><path d="M945.26 575.202C952.167 581.836 969.526 628.852 973.04 639.951C976.24 650.106 979.007 660.393 981.334 670.783C994.705 730.306 993.028 794.155 977.37 852.888C974.607 863.254 971.681 878.266 966.147 887.025C963.218 878.241 961.021 869.555 957.777 860.73C952.026 845.084 944.109 833.932 934.08 821.021C897.235 780.354 873.642 769.414 821.552 756.78C878.665 706.029 913.821 643.971 945.26 575.202Z"/></svg>