<?xml version="1.0" encoding="utf-8" ?><svg xmlns="http://www.w3.org/2000/svg" xmlns:xlink="http://www.w3.org/1999/xlink" width="1080" height="1080" viewBox="0 0 1080 1080"><path d="M988.133 192.678C989.955 192.555 989.15 192.352 990.663 193.166C992.401 197.352 991.423 211.126 991.467 216.516C992.479 278.296 987.828 340.039 977.574 400.971C976.71 396.864 975.93 392.036 975.371 387.871C969.953 347.507 957.98 309.049 945.243 270.491C861.919 297.598 815.781 338.037 763.961 408.065C785.991 392.315 806.944 375.62 830.833 362.824C852.976 350.964 908.938 330.991 922.548 362.834C945.47 416.468 919.934 484.251 903.699 536.453C896.708 558.929 882.512 585.073 871.174 605.712C827.841 685.612 764.952 753.217 688.388 802.205C668.885 814.653 645.574 827.22 625.083 837.41C582.148 857.53 548.909 867.716 502.964 877.477C487.55 762.932 500.642 683.416 534.003 573.508C531.377 571.683 528.73 569.89 526.061 568.129C483.26 540.239 440.833 536.808 391.499 543.508C378.45 545.28 361.902 547.502 349.125 550.222C351.612 546.588 354.252 543.061 357.04 539.652C405.915 478.7 480.913 438.423 557.602 425.978C570.596 423.91 583.697 422.579 596.842 421.991C604.471 421.578 612.574 421.595 620.102 420.765C624.61 412.729 630.921 404.43 636.507 397.121C704.199 308.564 797.217 240.325 904.703 208.979C932.094 200.99 959.716 196.223 988.133 192.678Z"/><path d="M89.7527 191.564C114.501 191.944 139.253 192.033 164.004 191.833L266.655 191.824L611.833 191.8L755.635 191.58C777.314 191.476 798.994 191.5 820.673 191.652C813.301 195.963 802.997 200.209 795.043 203.957C783.219 209.593 771.536 215.52 760.003 221.73C704.194 251.772 654.398 291.84 613.111 339.929C608.735 344.785 603.898 351.226 599.634 356.411L444.685 356.998C444.07 375.2 444.567 395.933 444.488 414.336C430.194 422.362 414.474 428.996 400.498 437.438C353.365 465.908 317.101 501.96 286.837 547.538C286.801 536.193 287.317 524.436 287.364 512.974C287.385 485.244 287.26 457.514 286.99 429.785C286.877 404.916 287.068 380.698 286.355 355.824C280.892 355.119 269.688 355.414 263.873 355.428L225.046 355.504L89.6999 355.54L89.7527 191.564Z"/><path d="M433.471 585.575C437.236 585.236 440.926 585.322 444.704 585.338C444.44 615.588 444.383 645.84 444.533 676.091L444.543 886.682C396.812 888.344 347.492 887.56 299.617 887.469L288.466 887.461C286.549 880.471 286.829 859.856 286.829 851.88L286.756 814.114L287.358 629.788C338.12 602.301 375.813 590.262 433.471 585.575Z"/><path d="M945.324 575.23C952.429 583.97 966.519 621.326 970.588 633.4C993.209 701.199 996.329 773.989 979.592 843.475C976.43 857.14 972.513 874.526 966.327 886.983C963.337 878.501 961.038 869.521 957.87 860.974C952.021 845.196 943.942 833.428 933.682 820.525C898.972 782.437 872.104 767.772 821.592 756.811C882.316 701.161 910.789 648.126 945.324 575.23Z"/></svg>